<svg width="14" height="14" viewBox="0 0 14 14" fill="none" xmlns="http://www.w3.org/2000/svg">
<path id="Vector" d="M5.10227 2.6055C5.94671 1.09067 6.36892 0.333252 7.00016 0.333252C7.6314 0.333252 8.05362 1.09067 8.89805 2.6055L9.11652 2.99741C9.35648 3.42788 9.47646 3.64311 9.66353 3.78512C9.85061 3.92714 10.0836 3.97985 10.5496 4.08528L10.9738 4.18127C12.6136 4.55229 13.4335 4.7378 13.6285 5.36507C13.8236 5.99235 13.2647 6.64597 12.1468 7.9532L11.8576 8.2914C11.5399 8.66288 11.381 8.84861 11.3096 9.0784C11.2381 9.30818 11.2621 9.55599 11.3102 10.0516L11.3539 10.5028C11.5229 12.247 11.6074 13.1191 11.0967 13.5067C10.586 13.8944 9.81838 13.5409 8.28305 12.834L7.88584 12.6511C7.44955 12.4503 7.2314 12.3498 7.00016 12.3498C6.76893 12.3498 6.55078 12.4503 6.11449 12.6511L5.71728 12.834C4.18195 13.5409 3.41428 13.8944 2.9036 13.5067C2.39291 13.1191 2.47742 12.247 2.64643 10.5029L2.69015 10.0516C2.73818 9.55599 2.76219 9.30818 2.69074 9.0784C2.61928 8.84861 2.46045 8.66288 2.14278 8.2914L1.85356 7.9532C0.735662 6.64597 0.176712 5.99235 0.371777 5.36507C0.566841 4.7378 1.38673 4.55229 3.02652 4.18127L3.45075 4.08528C3.91673 3.97985 4.14972 3.92714 4.33679 3.78512C4.52387 3.64311 4.64385 3.42788 4.88381 2.99741L5.10227 2.6055Z" fill="#D1D5DB"/>
</svg>
